<svg xmlns="http://www.w3.org/2000/svg" xmlns:xlink="http://www.w3.org/1999/xlink" width="20" height="17" version="1.1" viewBox="0 0 20 17"><title>Group 2</title><desc>Created with Sketch.</desc><g id="V3-最新稿件" fill="none" fill-rule="evenodd" stroke="none" stroke-width="1"><g id="documentation" transform="translate(-18.000000, -200.000000)"><g id="siderbars-copy" transform="translate(0.000000, 72.000000)"><g id="tutorials" transform="translate(18.000000, 32.000000)"><g id="Group-2" transform="translate(0.000000, 96.000000)"><rect id="Rectangle" width="16" height="11" x="1" y="1" fill="#F9D84B" rx="1"/><path id="Rectangle-Copy-4" stroke="#3E6CDE" stroke-width="1.5" d="M8.08556469,0.75 L0.75,1 L1,14.25 L8.5683227,14.25 L10.0230406,15.510299 L11.6252101,14.25 L19.25,14 L19,0.75 L12.0714779,0.75 L9.98238923,1.85836241 L8.08556469,0.75 Z"/><path id="Path-4" stroke="#3E6CDE" stroke-width="1.5" d="M4.5,10 C11.2222222,10 14.8888889,10 15.5,10" transform="translate(10.000000, 10.000000) rotate(90.000000) translate(-10.000000, -10.000000)"/><path id="Path-4" stroke="#3E6CDE" stroke-width="1.5" d="M4.5,7 C11.2222222,7 14.8888889,7 15.5,7" transform="translate(10.000000, 7.000000) rotate(90.000000) translate(-10.000000, -7.000000)"/><path id="Path-4" stroke="#3E6CDE" stroke-width="1.5" d="M3.5,6 C5.94444444,6 7.27777778,6 7.5,6"/><path id="Path-4" stroke="#3E6CDE" stroke-width="1.5" d="M3.5,9 C5.94444444,9 7.27777778,9 7.5,9"/><path id="Path-4" stroke="#3E6CDE" stroke-width="1.5" d="M12.5,6 C14.9444444,6 16.2777778,6 16.5,6"/><path id="Path-4" stroke="#3E6CDE" stroke-width="1.5" d="M12.5,9 C14.9444444,9 16.2777778,9 16.5,9"/></g></g></g></g></g></svg>