<svg xmlns="http://www.w3.org/2000/svg" xmlns:xlink="http://www.w3.org/1999/xlink" width="20" height="20" version="1.1" viewBox="0 0 20 20"><title>Group 2</title><desc>Created with Sketch.</desc><g id="V3-最新稿件" fill="none" fill-rule="evenodd" stroke="none" stroke-width="1"><g id="documentation" transform="translate(-18.000000, -658.000000)"><g id="siderbars-copy" transform="translate(0.000000, 72.000000)"><g id="tutorials" transform="translate(18.000000, 32.000000)"><g id="Group-2" transform="translate(0.000000, 554.000000)"><rect id="Rectangle" width="14" height="12" x="0" y="3" fill="#F9D84B" rx="1" transform="translate(7.000000, 9.000000) rotate(90.000000) translate(-7.000000, -9.000000)"/><path id="Rectangle-Copy-4" stroke="#3E6CDE" stroke-width="1.5" d="M21.6842105,11.8026316 L12.3289474,12.0526316 L12.5789474,15.0394737 L22.9342105,15.0394737 L22.9342105,13.0526316 C22.9342105,12.7074536 22.7942995,12.3949536 22.568094,12.1687481 C22.3418885,11.9425426 22.0293885,11.8026316 21.6842105,11.8026316 Z" transform="translate(17.631579, 13.421053) rotate(90.000000) translate(-17.631579, -13.421053)"/><path id="Rectangle-Copy-4" stroke="#3E6CDE" stroke-width="1.5" d="M16.8947368,2.85526316 L-0.302631579,3.10526316 L-0.0526315789,17.1447368 L17.1447368,16.8947368 L16.8947368,2.85526316 Z" transform="translate(8.421053, 10.000000) rotate(90.000000) translate(-8.421053, -10.000000)"/><path id="Path-4" stroke="#3E6CDE" stroke-width="1.5" d="M4.21052632,6.84210526 C9.35672515,6.84210526 12.1637427,6.84210526 12.6315789,6.84210526"/><path id="Path-4" stroke="#3E6CDE" stroke-width="1.5" d="M4.21052632,10 C9.35672515,10 12.1637427,10 12.6315789,10"/><path id="Path-4" stroke="#3E6CDE" stroke-width="1.5" d="M4.21052632,13.1578947 C7.42690058,13.1578947 9.18128655,13.1578947 9.47368421,13.1578947"/></g></g></g></g></g></svg>