<svg xmlns="http://www.w3.org/2000/svg" xmlns:xlink="http://www.w3.org/1999/xlink" width="56" height="54" version="1.1" viewBox="0 0 56 54"><title>co-icon</title><desc>Created with Sketch.</desc><defs><polygon id="path-1" points="36.055 38.288 8.061 38.288 8.066 19.934 0 19.934 21.962 .669 43.295 19.934 36.05 19.934"/></defs><g id="V-Web-Final" fill="none" fill-rule="evenodd" stroke="none" stroke-width="1"><g id="documentation" transform="translate(-938.000000, -754.000000)"><g id="co-icon" transform="translate(938.000000, 754.000000)"><g id="Group-10" transform="translate(5.628571, 9.285767)"><g id="Path" transform="translate(0.711735, 0.008747)"><mask id="mask-2" fill="#fff"><use xlink:href="#path-1"/></mask><path stroke="#FFF" stroke-width="5" d="M21.9866213,-2.67776449 L-6.64110822,22.4342779 L5.56487689,22.4342779 L5.55984555,40.787923 L38.5561495,40.787923 L38.5508602,22.4342779 L49.793641,22.4342779 L21.9866213,-2.67776449 Z"/><polygon fill="#F4D54B" points="29.873 32.94 -3.606 32.94 -3.6 12.282 -13.245 12.282 13.019 -10.757 38.531 15.614 29.866 15.614" mask="url(#mask-2)"/></g><polygon id="Path" stroke="#3E6CDE" stroke-linejoin="round" stroke-width="3" points="36.71 38.302 8.207 38.302 8.212 19.615 0 19.615 22.361 0 44.082 19.615 36.705 19.615"/></g><path id="Fill-2" fill="#3E6CDE" d="M28.0864505,41.2379284 C27.8565699,41.2379284 27.6212673,41.1758716 27.4176476,41.0512391 C27.3339656,41.0046802 25.3846516,39.8374666 23.409338,38.146174 C20.5661093,35.7184993 19.123852,33.4514461 19.123852,31.4075902 C19.123852,28.0821985 21.8466204,25.3795153 25.1965793,25.3795153 C26.2208838,25.3795153 27.2086712,25.6285209 28.0918072,26.1057167 C28.9750084,25.6285209 29.9574392,25.3795153 30.9871003,25.3795153 C34.3367979,25.3795153 37.0595663,28.0821985 37.0595663,31.4075902 C37.0595663,33.4773194 35.6172438,35.7547478 32.7743417,38.1722418 C30.7936714,39.8528997 28.8390007,41.0046802 28.7606754,41.0565564 C28.5462769,41.1758716 28.3163964,41.2379284 28.0864505,41.2379284 Z M25.1912227,27.9786407 C23.2837823,27.9786407 21.7317782,29.5192331 21.7317782,31.4126481 C21.7317782,32.62668 22.9231853,34.3126553 25.0814757,36.1645694 C26.2259792,37.1450937 27.386226,37.9491094 28.0918072,38.4108721 C28.7920316,37.9544267 29.9523438,37.1605269 31.0967819,36.1853199 C33.2550723,34.3438458 34.4413841,32.6525533 34.4413841,31.4126481 C34.4413841,29.5192331 32.889184,27.9786407 30.9817436,27.9786407 C30.213646,27.9786407 29.4871607,28.222329 28.880809,28.6840917 C28.4105305,29.0419724 27.7623705,29.0419724 27.2920919,28.6840917 C26.6860669,28.222329 25.9595816,27.9786407 25.1912227,27.9786407 Z"/></g></g></g></svg>