<svg xmlns="http://www.w3.org/2000/svg" xmlns:xlink="http://www.w3.org/1999/xlink" width="54" height="54" version="1.1" viewBox="0 0 54 54"><title>ex-icon</title><desc>Created with Sketch.</desc><g id="V-Web-Final" fill="none" fill-rule="evenodd" stroke="none" stroke-width="1"><g id="documentation" transform="translate(-463.000000, -504.000000)"><g id="Group" transform="translate(463.000000, 504.000000)"><g id="Group-7" transform="translate(10.028571, 13.885714)"><path id="Combined-Shape" fill="#FFF" stroke="#FFF" stroke-width="8" d="M2.97567844,0.0987090449 C4.68088235,-0.117216991 13.84454,0.0867131541 26.4361763,0.0982092161 L27.5237605,0.0987090449 C30.3463196,0.0987090449 31.5915252,1.4181433 31.2593771,4.05701182 L31.2593771,4.05701182 L31.2599281,9.49327784 C34.7018789,9.49924796 37.490282,12.297546 37.490282,15.7485613 C37.490282,19.2032642 34.6959164,22.0038543 31.2488918,22.0038543 L31.259,22.003 L31.2593771,27.4556037 C31.2593771,30.0145065 29.8932856,31.2938318 27.1611027,31.2935795 L26.9009583,31.2898071 L21.88,31.363 L21.8774408,31.1843016 C21.7568385,27.8316852 19.0057748,25.150867 15.6296886,25.150867 C12.1768731,25.150867 9.37781313,27.9549253 9.37781313,31.4139065 L2.97567844,31.4139065 C0.991892813,31.3311735 1.10134124e-13,30.0117393 1.10134124e-13,27.4556037 L1.10134124e-13,27.4556037 L1.10134124e-13,4.05701182 C1.10134124e-13,1.87005246 1.22175441,0.320804396 2.97567844,0.0987090449 Z"/><rect id="Rectangle" width="27.438" height="25.451" x="0" y=".103" fill="#F9D84B" rx="3"/><path id="Combined-Shape" stroke="#3E6CDE" stroke-width="3" d="M2.97567844,0.0987090449 C4.68088235,-0.117216991 13.84454,0.0867131541 26.4361763,0.0982092161 L27.5237605,0.0987090449 C30.3463196,0.0987090449 31.5915252,1.4181433 31.2593771,4.05701182 L31.2593771,4.05701182 L31.2599281,9.49327784 C34.7018789,9.49924796 37.490282,12.297546 37.490282,15.7485613 C37.490282,19.2032642 34.6959164,22.0038543 31.2488918,22.0038543 L31.259,22.003 L31.2593771,27.4556037 C31.2593771,30.0145065 29.8932856,31.2938318 27.1611027,31.2935795 L26.9009583,31.2898071 L21.88,31.363 L21.8774408,31.1843016 C21.7568385,27.8316852 19.0057748,25.150867 15.6296886,25.150867 C12.1768731,25.150867 9.37781313,27.9549253 9.37781313,31.4139065 L2.97567844,31.4139065 C0.991892813,31.3311735 1.10134124e-13,30.0117393 1.10134124e-13,27.4556037 L1.10134124e-13,27.4556037 L1.10134124e-13,4.05701182 C1.10134124e-13,1.87005246 1.22175441,0.320804396 2.97567844,0.0987090449 Z"/><line id="Path-33" x1="8.657" x2="22.811" y1="11.016" y2="11.016" stroke="#3E6CDE" stroke-linecap="round" stroke-linejoin="round" stroke-width="3"/><line id="Path-33-Copy" x1="8.657" x2="22.811" y1="17.779" y2="17.779" stroke="#3E6CDE" stroke-linecap="round" stroke-linejoin="round" stroke-width="3"/></g></g></g></g></svg>